<svg id="visual" viewBox="0 0 1920 960" width="100%" height="100%" xmlns="http://www.w3.org/2000/svg" preserveAspectRatio="none"><rect x="0" y="0" width="1920" height="1080" fill="#272932"></rect><path d="M0 63L26.7 68.7C53.3 74.3 106.7 85.7 160 78.2C213.3 70.7 266.7 44.3 320 30.7C373.3 17 426.7 16 480 29C533.3 42 586.7 69 640 68.8C693.3 68.7 746.7 41.3 800 36.3C853.3 31.3 906.7 48.7 960 47.5C1013.3 46.3 1066.7 26.7 1120 20.7C1173.3 14.7 1226.7 22.3 1280 33.2C1333.3 44 1386.7 58 1440 58.5C1493.3 59 1546.7 46 1600 41.8C1653.3 37.7 1706.7 42.3 1760 51.5C1813.3 60.7 1866.7 74.3 1893.3 81.2L1920 88L1920 0L1893.3 0C1866.7 0 1813.3 0 1760 0C1706.7 0 1653.3 0 1600 0C1546.7 0 1493.3 0 1440 0C1386.7 0 1333.3 0 1280 0C1226.7 0 1173.3 0 1120 0C1066.7 0 1013.3 0 960 0C906.7 0 853.3 0 800 0C746.7 0 693.3 0 640 0C586.7 0 533.3 0 480 0C426.7 0 373.3 0 320 0C266.7 0 213.3 0 160 0C106.7 0 53.3 0 26.7 0L0 0Z" fill="#E5E5E5" stroke-linecap="round" stroke-linejoin="miter"></path></svg>
